<svg width="260" height="56" viewBox="0 0 260 56" fill="none" xmlns="http://www.w3.org/2000/svg">
<g clip-path="url(#clip0_102_11)">
<path d="M232.802 56C231.318 55.9995 229.837 55.8801 228.371 55.6431C224.827 55.0824 221.427 53.8215 218.369 51.9327C215.31 50.044 212.653 47.5648 210.549 44.6379C208.446 41.711 206.939 38.3942 206.115 34.8785C205.29 31.3628 205.164 27.7176 205.745 24.1527C206.759 17.6932 210.032 11.8108 214.973 7.56525C219.914 3.31972 226.199 0.990097 232.695 0.996044V16.8317C230.871 16.8392 229.074 17.28 227.451 18.1183C225.829 18.9566 224.425 20.1687 223.355 21.656C222.285 23.1433 221.579 24.8639 221.294 26.6777C221.009 28.4916 221.154 30.3475 221.715 32.0946C222.277 33.8417 223.241 35.4307 224.528 36.7322C225.814 38.0338 227.388 39.0112 229.121 39.585C230.854 40.1588 232.696 40.3128 234.499 40.0344C236.302 39.756 238.015 39.0532 239.497 37.983C240.978 36.8886 242.182 35.4578 243.01 33.807C243.839 32.1562 244.269 30.3319 244.266 28.4823L259.997 28.5155C259.989 32.8606 258.963 37.1428 257.004 41.0144C255.045 44.886 252.206 48.2382 248.72 50.7989C244.093 54.1833 238.521 56.0042 232.802 56Z" fill="white"/>
<path d="M247.331 13.7589H232.697V28.4922H247.331V13.7589Z" fill="#F22987"/>
<path d="M113.402 53.9432V0.786896H134.035C140.055 0.786896 144.628 1.95228 147.756 4.28306C150.883 6.61383 152.447 10.0181 152.446 14.496C152.446 16.9684 151.878 19.1819 150.742 21.1364C149.619 23.087 147.936 24.6497 145.914 25.6186C148.784 26.411 151.054 27.9494 152.723 30.2337C154.391 32.518 155.225 35.2461 155.224 38.4179C155.224 43.4989 153.58 47.357 150.292 49.9921C147.004 52.6273 142.164 53.9448 135.771 53.9448L113.402 53.9432ZM132.924 10.4387H125.98V22.3914H132.858C137.488 22.3914 139.804 20.3401 139.805 16.2374C139.802 12.3727 137.509 10.4398 132.924 10.4387ZM134.591 31.7078H125.98V44.2914H134.868C139.545 44.2914 141.885 42.193 141.886 37.9963C141.887 33.7996 139.455 31.7034 134.591 31.7078Z" fill="white"/>
<path d="M151.751 53.9431L172.454 0.786896H186.973L207.675 53.9431H192.947L188.849 41.5621H169.677L165.579 53.9431H151.751ZM173.148 31.0023H185.375L179.261 12.3279L173.148 31.0023Z" fill="white"/>
<path d="M58.8428 1.1189V53.6111H70.9659V20.4175L95.499 53.6111H107.022V1.1189H94.8987V34.2411L70.3656 1.1189H58.8428Z" fill="#F22987"/>
<path d="M48.6275 7.6713C46.0509 5.19601 43.0051 3.26899 39.6721 2.0054C36.2274 0.675659 32.3986 0 28.2927 0C24.2775 0 20.5096 0.69724 17.0914 2.07512C13.7526 3.39971 10.6986 5.35947 8.09632 7.84727C5.53865 10.3084 3.50738 13.2697 2.12712 16.5495C0.695975 19.9719 -0.0277851 23.6518 -2.40632e-05 27.365C-2.40632e-05 31.3609 0.704078 35.0695 2.09249 38.3914C3.43924 41.6534 5.43537 44.6031 7.95781 47.0587C10.5334 49.535 13.5795 51.4616 16.9133 52.723C20.3563 54.0511 24.1851 54.73 28.291 54.73C32.3062 54.73 36.0741 54.0328 39.4924 52.6549C42.8311 51.3303 45.8851 49.3706 48.4874 46.8828C51.0448 44.4217 53.0765 41.4611 54.4582 38.1822C55.8891 34.7597 56.6128 31.0798 56.5854 27.3667C56.5854 23.3741 55.8813 19.6655 54.4929 16.3403C53.1449 13.0785 51.149 10.1284 48.6275 7.6713ZM40.8775 35.458C39.7095 37.7448 37.9387 39.6637 35.7591 41.0044C33.5858 42.3324 31.0745 43.0114 28.2927 43.0114C25.5109 43.0114 22.9979 42.3324 20.8246 40.9712C18.6473 39.6112 16.8777 37.6816 15.7046 35.3883C14.4811 33.0442 13.8594 30.3216 13.8594 27.2953C13.8594 24.2689 14.4811 21.558 15.7046 19.2355C16.8811 16.9624 18.6521 15.0561 20.8262 13.7224C22.9995 12.3943 25.5125 11.7153 28.2927 11.7153C31.1206 11.7153 33.6452 12.4026 35.7971 13.7589C37.9575 15.1281 39.7132 17.0562 40.8808 19.3418C42.1043 21.6875 42.7259 24.4117 42.7259 27.4347C42.7259 30.413 42.1043 33.1123 40.8808 35.458H40.8775Z" fill="#F22987"/>
</g>
<defs>
<clipPath id="clip0_102_11">
<rect width="260" height="56" fill="white"/>
</clipPath>
</defs>
</svg>
