<svg xmlns="http://www.w3.org/2000/svg" viewBox="0 0 54.61 55"><defs><style>.cls-1{fill:#fff;}.cls-2{fill:#f22987;}</style></defs><g id="Camada_2" data-name="Camada 2"><g id="Camada_1-2" data-name="Camada 1"><path class="cls-1" d="M27.42,55A28.68,28.68,0,0,1,23,54.65a27.17,27.17,0,0,1-17.82-11A27.75,27.75,0,0,1,9.59,6.57,27.09,27.09,0,0,1,27.31,0V15.84a11.43,11.43,0,0,0-5.25,1.28A11.67,11.67,0,1,0,37.62,32.81a11.83,11.83,0,0,0,1.26-5.32l15.73,0A27.66,27.66,0,0,1,43.33,49.8,26.83,26.83,0,0,1,27.42,55Z"/><path class="cls-2" d="M41.94,12.76H27.31V27.5H41.94Z"/></g></g></svg>